<svg version="1.2" xmlns="http://www.w3.org/2000/svg" viewBox="0 0 1052 115" width="1052" height="115">
	<title>konkatenate</title>
	<style>
		.s0 { fill: #64B5DA } 
	</style>
	<path id="Konkatenate." class="s0" aria-label="Konkatenate."  d="m29 12.3v37.5l37.5-0.1v-18.7h18.8v-18.8h18.7v18.8h-18.7v18.8l-18.8-0.1v18.8h18.8v18.7h18.7v18.8h-18.7v-18.8h-18.8v-18.7h-37.5v37.5h-18.7v-93.8zm168.7 75h-18.7v18.8h-37.5v-18.8h-18.8v-37.5h18.8v-18.7h37.5v18.7h18.7zm-18.7-0.7v-36h-37.5v36zm37.5 19.5v-75h56.2v18.7h18.8v56.3h-18.8v-56.3h-37.5v56.3zm168.8 0h-18.8v-37.5h-18.7v18.7h-18.8v18.8h-18.7v-93.8h18.7v56.3h18.8v-18.8h18.7v-18.7h18.8v18.7h-18.8v18.8h18.8zm37.5 0v-18.8h-18.8v-37.5h18.8v-18.7h37.5v18.7h18.7v56.3zm37.5-19.5v-36h-37.5v36zm75-55.5h18.8v18.8h-18.8v56.2h-18.7v-56.3h-18.8v-18.7h18.8v-18.8h18.7zm56.3 75v-18.7h-18.8v-37.5h18.8v-18.8h56.2v37.5h-18.7v18.8h18.7v18.7zm0-19.5h18.8v-18.7h18.7v-17.3h-37.5zm75 19.5v-75h56.3v18.8h18.7v56.2h-18.7v-56.2h-37.5v56.2zm112.5 0v-18.7h-18.8v-37.5h18.8v-18.8h37.5v18.8h18.7v56.2zm37.5-19.5v-36h-37.5v36zm75-55.5h18.8v18.8h-18.8v56.2h-18.7v-56.2h-18.8v-18.8h18.8v-18.7h18.7zm56.3 75v-18.8h-18.8v-37.5h18.8v-18.7h56.2v37.5h-18.7v18.7h18.7v18.8zm0-19.5h18.8v-18.8h18.7v-17.2h-37.5zm75 19.5v-18.8h18.8v18.8z"/>
</svg>